<svg width="1452" height="400" viewBox="0 0 1452 400" fill="none" xmlns="http://www.w3.org/2000/svg">
<path d="M673.3 306H543.652V98.972H673.3V136.932H583.948V184.236H664.832V220.152H583.948V268.04H673.3V306Z" fill="#FC3C3C"/>
<path d="M697.851 265.996L731.139 258.696C731.528 264.925 733.961 270.181 738.439 274.464C743.111 278.552 749.438 280.596 757.419 280.596C763.453 280.596 768.125 279.233 771.435 276.508C774.744 273.783 776.399 270.376 776.399 266.288C776.399 259.085 771.24 254.413 760.923 252.272L741.943 247.892C728.511 244.972 718.388 239.716 711.575 232.124C704.956 224.532 701.647 215.48 701.647 204.968C701.647 191.925 706.708 180.829 716.831 171.68C727.148 162.531 739.996 157.956 755.375 157.956C765.108 157.956 773.673 159.416 781.071 162.336C788.468 165.061 794.211 168.663 798.299 173.14C802.387 177.423 805.501 181.803 807.643 186.28C809.784 190.757 811.147 195.137 811.731 199.42L779.319 206.72C778.54 201.659 776.204 197.181 772.311 193.288C768.612 189.395 763.064 187.448 755.667 187.448C750.605 187.448 746.225 188.811 742.527 191.536C739.023 194.261 737.271 197.668 737.271 201.756C737.271 208.764 741.651 213.047 750.411 214.604L770.851 218.984C784.672 221.904 795.184 227.257 802.387 235.044C809.784 242.831 813.483 252.175 813.483 263.076C813.483 275.924 808.616 287.02 798.883 296.364C789.149 305.708 775.425 310.38 757.711 310.38C747.588 310.38 738.536 308.92 730.555 306C722.573 302.885 716.344 298.992 711.867 294.32C707.584 289.453 704.275 284.684 701.939 280.012C699.797 275.145 698.435 270.473 697.851 265.996Z" fill="#FC3C3C"/>
<path d="M882.682 264.244C889.885 271.447 898.548 275.048 908.67 275.048C918.793 275.048 927.358 271.447 934.366 264.244C941.569 257.041 945.17 247.016 945.17 234.168C945.17 221.32 941.569 211.295 934.366 204.092C927.358 196.889 918.793 193.288 908.67 193.288C898.548 193.288 889.885 196.889 882.682 204.092C875.674 211.295 872.17 221.32 872.17 234.168C872.17 247.016 875.674 257.041 882.682 264.244ZM854.65 179.564C869.056 165.159 887.062 157.956 908.67 157.956C930.278 157.956 948.188 165.159 962.398 179.564C976.804 193.969 984.006 212.171 984.006 234.168C984.006 256.165 976.804 274.367 962.398 288.772C948.188 303.177 930.278 310.38 908.67 310.38C887.062 310.38 869.056 303.177 854.65 288.772C840.44 274.367 833.334 256.165 833.334 234.168C833.334 212.171 840.44 193.969 854.65 179.564Z" fill="#FC3C3C"/>
<path d="M1079.19 193.872C1068.88 193.872 1060.21 197.473 1053.21 204.676C1046.2 211.879 1042.69 221.709 1042.69 234.168C1042.69 246.627 1046.2 256.555 1053.21 263.952C1060.41 271.155 1069.17 274.756 1079.49 274.756C1088.63 274.756 1095.94 272.42 1101.39 267.748C1106.84 262.881 1110.54 257.139 1112.48 250.52L1146.65 261.908C1143.14 275.145 1135.55 286.533 1123.87 296.072C1112.19 305.611 1097.39 310.38 1079.49 310.38C1058.07 310.38 1040.07 303.177 1025.47 288.772C1011.06 274.172 1003.86 255.971 1003.86 234.168C1003.86 212.171 1010.96 193.969 1025.17 179.564C1039.58 165.159 1057.29 157.956 1078.32 157.956C1096.62 157.956 1111.61 162.725 1123.29 172.264C1134.97 181.608 1142.46 192.996 1145.77 206.428L1111.02 218.108C1106.35 201.951 1095.74 193.872 1079.19 193.872Z" fill="#FC3C3C"/>
<path d="M1214.04 306H1175.2V162.336H1214.04V306ZM1170.53 115.324C1170.53 108.705 1172.87 103.06 1177.54 98.388C1182.21 93.5213 1187.86 91.088 1194.48 91.088C1201.1 91.088 1206.74 93.424 1211.41 98.096C1216.08 102.768 1218.42 108.511 1218.42 115.324C1218.42 121.748 1216.08 127.296 1211.41 131.968C1206.74 136.64 1201.1 138.976 1194.48 138.976C1187.86 138.976 1182.21 136.64 1177.54 131.968C1172.87 127.296 1170.53 121.748 1170.53 115.324Z" fill="#FC3C3C"/>
<path d="M1246.86 266.872C1246.86 254.608 1250.85 244.777 1258.83 237.38C1266.81 229.983 1277.13 225.311 1289.78 223.364L1325.11 218.108C1332.32 217.135 1335.92 213.728 1335.92 207.888C1335.92 202.437 1333.78 197.96 1329.49 194.456C1325.41 190.952 1319.47 189.2 1311.68 189.2C1303.51 189.2 1296.99 191.439 1292.12 195.916C1287.45 200.393 1284.82 205.941 1284.23 212.56L1249.78 205.26C1251.14 192.801 1257.27 181.803 1268.17 172.264C1279.08 162.725 1293.48 157.956 1311.39 157.956C1332.8 157.956 1348.57 163.115 1358.69 173.432C1368.82 183.555 1373.88 196.597 1373.88 212.56V283.224C1373.88 291.789 1374.46 299.381 1375.63 306H1340.01C1339.03 301.717 1338.55 295.975 1338.55 288.772C1329.4 302.983 1315.28 310.088 1296.21 310.088C1281.41 310.088 1269.44 305.805 1260.29 297.24C1251.34 288.675 1246.86 278.552 1246.86 266.872ZM1304.38 281.18C1313.53 281.18 1321.03 278.649 1326.87 273.588C1332.9 268.332 1335.92 259.767 1335.92 247.892V241.468L1303.51 246.432C1291.63 248.184 1285.69 254.219 1285.69 264.536C1285.69 269.208 1287.35 273.199 1290.66 276.508C1293.97 279.623 1298.54 281.18 1304.38 281.18Z" fill="#FC3C3C"/>
<path d="M1451.86 306H1413.02V94.592H1451.86V306Z" fill="#FC3C3C"/>
<path fill-rule="evenodd" clip-rule="evenodd" d="M0 200C0 263.383 0 295.074 10.6576 319.962C24.0107 351.144 48.8557 375.989 80.0382 389.342C104.926 400 136.617 400 200 400C263.383 400 295.074 400 319.962 389.342C351.144 375.989 375.989 351.144 389.342 319.962C400 295.074 400 263.383 400 200C400 136.617 400 104.926 389.342 80.0382C375.989 48.8557 351.144 24.0107 319.962 10.6576C295.074 0 263.383 0 200 0C136.617 0 104.926 0 80.0382 10.6576C48.8557 24.0107 24.0107 48.8557 10.6576 80.0382C0 104.926 0 136.617 0 200ZM216.232 81.974C272.685 91.716 309.652 143.459 300.667 200.158C292.946 248.881 260.576 292.608 216.602 313.716C201.931 320.758 196.181 320.843 193.001 314.065C192.336 312.648 191.985 311.104 191.971 309.538L191.789 288.745C191.768 286.341 189.963 284.327 187.575 284.044C156.93 280.409 128.67 262.145 112.813 235.726C74.061 171.16 115.008 89.181 190.039 81.114C194.596 80.624 211.654 81.184 216.232 81.974ZM190.43 94.547C172.715 96.559 153.739 104.839 141.96 115.697C141.014 116.569 140.962 118.046 141.844 118.982L148.806 126.366C149.536 127.14 150.755 127.176 151.529 126.445C176.002 103.336 219.403 102.621 246.636 124.878C247.901 125.912 249.187 126.934 249.494 127.148C249.928 127.452 251.126 126.409 254.876 122.461L258.65 118.488C259.239 117.867 259.243 116.895 258.658 116.27C245.148 101.83 213.901 91.881 190.43 94.547ZM189.793 115.422C177.314 117.452 165.046 123.046 155.938 130.859C155.071 131.603 155.005 132.921 155.793 133.748L163.44 141.773C164.168 142.536 165.368 142.59 166.16 141.894C184.311 125.957 214.488 125.789 233.362 141.521C234.44 142.42 236.03 142.328 236.999 141.312L244.207 133.748C244.995 132.921 244.929 131.603 244.062 130.859C229.798 118.623 208.082 112.446 189.793 115.422ZM192.029 136.565C184.032 138.009 176.046 141.668 170.128 146.598C169.498 147.122 169.44 148.069 170.002 148.666L173.785 152.689C176.436 155.507 178.691 157.813 178.797 157.813C178.903 157.813 179.644 157.294 180.444 156.66C191.229 148.118 208.771 148.118 219.556 156.66C220.356 157.294 221.097 157.813 221.203 157.813C221.309 157.813 223.564 155.507 226.215 152.689L229.998 148.666C230.56 148.069 230.502 147.122 229.872 146.598C219.754 138.169 204.923 134.237 192.029 136.565ZM194.727 159.235C176.365 163.116 169.597 186.457 182.966 199.794C194.562 211.362 214.273 208.254 221.436 193.727C230.527 175.289 214.809 154.991 194.727 159.235Z" fill="#FC3C3C"/>
</svg>
