<svg width="27" height="27" viewBox="0 0 27 27" fill="none" xmlns="http://www.w3.org/2000/svg">
<mask id="path-1-inside-1" fill="white">
<path d="M19.6876 10.1237C18.6805 10.1232 17.6889 10.3723 16.8015 10.8487C16.7205 10.6355 16.5766 10.4519 16.3888 10.3224C16.201 10.1929 15.9782 10.1235 15.7501 10.1237H11.2501C11.1024 10.1236 10.956 10.1526 10.8195 10.2091C10.683 10.2656 10.5589 10.3485 10.4544 10.453C10.35 10.5575 10.2671 10.6815 10.2106 10.818C10.1541 10.9546 10.125 11.1009 10.1251 11.2487V24.7486C10.125 24.8964 10.1541 25.0427 10.2106 25.1793C10.2671 25.3158 10.3499 25.4399 10.4544 25.5443C10.5589 25.6488 10.683 25.7317 10.8195 25.7882C10.956 25.8447 11.1024 25.8737 11.2501 25.8736H15.7501C15.8979 25.8737 16.0442 25.8447 16.1807 25.7882C16.3173 25.7317 16.4413 25.6488 16.5458 25.5443C16.6503 25.4399 16.7332 25.3158 16.7897 25.1793C16.8462 25.0427 16.8752 24.8964 16.8751 24.7486V18.5612C16.8751 18.2628 16.9936 17.9766 17.2046 17.7657C17.4156 17.5547 17.7018 17.4362 18.0001 17.4362C18.2985 17.4362 18.5846 17.5547 18.7956 17.7657C19.0066 17.9766 19.1251 18.2628 19.1251 18.5612V24.7486C19.125 24.8964 19.1541 25.0427 19.2106 25.1793C19.2671 25.3158 19.3499 25.4399 19.4544 25.5443C19.5589 25.6488 19.683 25.7317 19.8195 25.7882C19.956 25.8447 20.1024 25.8737 20.2501 25.8736H24.7501C24.8979 25.8737 25.0442 25.8447 25.1807 25.7882C25.3173 25.7317 25.4413 25.6488 25.5458 25.5443C25.6503 25.4399 25.7332 25.3158 25.7897 25.1793C25.8462 25.0427 25.8752 24.8964 25.8751 24.7486V16.3112C25.8731 14.6707 25.2205 13.0981 24.0606 11.9382C22.9007 10.7782 21.328 10.1257 19.6876 10.1237ZM23.6251 23.6236H21.3751V18.5612C21.3751 17.666 21.0195 16.8076 20.3866 16.1747C19.7537 15.5417 18.8952 15.1862 18.0001 15.1862C17.105 15.1862 16.2466 15.5417 15.6136 16.1747C14.9807 16.8076 14.6251 17.666 14.6251 18.5612V23.6236H12.3751V12.3737H14.6251V13.1647C14.6253 13.3978 14.6978 13.6251 14.8326 13.8152C14.9675 14.0053 15.1581 14.1489 15.378 14.2261C15.598 14.3032 15.8364 14.3102 16.0605 14.2461C16.2846 14.1819 16.4833 14.0497 16.629 13.8678C17.1339 13.2266 17.8264 12.759 18.6099 12.5304C19.3933 12.3018 20.2286 12.3236 20.9991 12.5927C21.7695 12.8618 22.4368 13.3648 22.9076 14.0314C23.3783 14.698 23.6292 15.495 23.6251 16.3112V23.6236ZM7.87512 10.1237H3.37512C3.22736 10.1236 3.08103 10.1526 2.9445 10.2091C2.80797 10.2656 2.68392 10.3485 2.57944 10.453C2.47495 10.5575 2.39209 10.6815 2.33558 10.818C2.27908 10.9546 2.25004 11.1009 2.25012 11.2487V24.7486C2.25003 24.8964 2.27907 25.0427 2.33558 25.1793C2.39209 25.3158 2.47495 25.4399 2.57943 25.5443C2.68392 25.6488 2.80797 25.7317 2.9445 25.7882C3.08103 25.8447 3.22736 25.8737 3.37512 25.8736H7.87512C8.02288 25.8737 8.16921 25.8447 8.30574 25.7882C8.44227 25.7317 8.56632 25.6488 8.67081 25.5443C8.77529 25.4399 8.85815 25.3158 8.91466 25.1793C8.97117 25.0427 9.00021 24.8964 9.00012 24.7486V11.2487C9.0002 11.1009 8.97116 10.9546 8.91466 10.818C8.85815 10.6815 8.77529 10.5575 8.6708 10.453C8.56632 10.3485 8.44227 10.2656 8.30574 10.2091C8.16921 10.1526 8.02288 10.1236 7.87512 10.1237ZM6.75012 23.6236H4.50012V12.3737H6.75012V23.6236ZM5.6416 1.73453C5.14926 1.70505 4.65606 1.77604 4.19201 1.94315C3.72796 2.11027 3.30275 2.37003 2.94224 2.70663C2.58173 3.04323 2.29345 3.44965 2.09494 3.90116C1.89642 4.35268 1.79182 4.83985 1.78749 5.33305C1.78317 5.82626 1.8792 6.31519 2.06977 6.77012C2.26033 7.22504 2.54143 7.63646 2.89598 7.97933C3.25053 8.32221 3.67112 8.58939 4.13216 8.76462C4.59321 8.93986 5.08508 9.01948 5.57787 8.99865H5.60973C6.10338 9.02797 6.59782 8.95633 7.06284 8.78811C7.52787 8.61988 7.95371 8.35861 8.31434 8.02025C8.67498 7.68189 8.96284 7.27355 9.16033 6.82018C9.35782 6.36681 9.46079 5.87793 9.46296 5.38342C9.46513 4.88891 9.36645 4.39915 9.17294 3.94406C8.97944 3.48898 8.69517 3.07813 8.33752 2.73661C7.97986 2.3951 7.55633 2.1301 7.0928 1.95781C6.62927 1.78551 6.13547 1.70954 5.64159 1.73453H5.6416ZM5.60974 6.74865H5.57787C5.38332 6.77228 5.18597 6.75403 4.99905 6.69513C4.81213 6.63624 4.63996 6.53806 4.49409 6.40717C4.34823 6.27629 4.23203 6.11573 4.1533 5.93626C4.07457 5.75679 4.03512 5.56256 4.0376 5.3666C4.0376 4.52724 4.66711 3.98451 5.6416 3.98451C5.83814 3.95831 6.038 3.97454 6.22774 4.03208C6.41748 4.08963 6.59269 4.18717 6.74155 4.31814C6.89042 4.4491 7.0095 4.61044 7.09076 4.7913C7.17202 4.97216 7.21358 5.16833 7.21264 5.3666C7.21264 6.20595 6.58313 6.74865 5.60974 6.74865Z"/>
</mask>
<path d="M19.6876 10.1237C18.6805 10.1232 17.6889 10.3723 16.8015 10.8487C16.7205 10.6355 16.5766 10.4519 16.3888 10.3224C16.201 10.1929 15.9782 10.1235 15.7501 10.1237H11.2501C11.1024 10.1236 10.956 10.1526 10.8195 10.2091C10.683 10.2656 10.5589 10.3485 10.4544 10.453C10.35 10.5575 10.2671 10.6815 10.2106 10.818C10.1541 10.9546 10.125 11.1009 10.1251 11.2487V24.7486C10.125 24.8964 10.1541 25.0427 10.2106 25.1793C10.2671 25.3158 10.3499 25.4399 10.4544 25.5443C10.5589 25.6488 10.683 25.7317 10.8195 25.7882C10.956 25.8447 11.1024 25.8737 11.2501 25.8736H15.7501C15.8979 25.8737 16.0442 25.8447 16.1807 25.7882C16.3173 25.7317 16.4413 25.6488 16.5458 25.5443C16.6503 25.4399 16.7332 25.3158 16.7897 25.1793C16.8462 25.0427 16.8752 24.8964 16.8751 24.7486V18.5612C16.8751 18.2628 16.9936 17.9766 17.2046 17.7657C17.4156 17.5547 17.7018 17.4362 18.0001 17.4362C18.2985 17.4362 18.5846 17.5547 18.7956 17.7657C19.0066 17.9766 19.1251 18.2628 19.1251 18.5612V24.7486C19.125 24.8964 19.1541 25.0427 19.2106 25.1793C19.2671 25.3158 19.3499 25.4399 19.4544 25.5443C19.5589 25.6488 19.683 25.7317 19.8195 25.7882C19.956 25.8447 20.1024 25.8737 20.2501 25.8736H24.7501C24.8979 25.8737 25.0442 25.8447 25.1807 25.7882C25.3173 25.7317 25.4413 25.6488 25.5458 25.5443C25.6503 25.4399 25.7332 25.3158 25.7897 25.1793C25.8462 25.0427 25.8752 24.8964 25.8751 24.7486V16.3112C25.8731 14.6707 25.2205 13.0981 24.0606 11.9382C22.9007 10.7782 21.328 10.1257 19.6876 10.1237ZM23.6251 23.6236H21.3751V18.5612C21.3751 17.666 21.0195 16.8076 20.3866 16.1747C19.7537 15.5417 18.8952 15.1862 18.0001 15.1862C17.105 15.1862 16.2466 15.5417 15.6136 16.1747C14.9807 16.8076 14.6251 17.666 14.6251 18.5612V23.6236H12.3751V12.3737H14.6251V13.1647C14.6253 13.3978 14.6978 13.6251 14.8326 13.8152C14.9675 14.0053 15.1581 14.1489 15.378 14.2261C15.598 14.3032 15.8364 14.3102 16.0605 14.2461C16.2846 14.1819 16.4833 14.0497 16.629 13.8678C17.1339 13.2266 17.8264 12.759 18.6099 12.5304C19.3933 12.3018 20.2286 12.3236 20.9991 12.5927C21.7695 12.8618 22.4368 13.3648 22.9076 14.0314C23.3783 14.698 23.6292 15.495 23.6251 16.3112V23.6236ZM7.87512 10.1237H3.37512C3.22736 10.1236 3.08103 10.1526 2.9445 10.2091C2.80797 10.2656 2.68392 10.3485 2.57944 10.453C2.47495 10.5575 2.39209 10.6815 2.33558 10.818C2.27908 10.9546 2.25004 11.1009 2.25012 11.2487V24.7486C2.25003 24.8964 2.27907 25.0427 2.33558 25.1793C2.39209 25.3158 2.47495 25.4399 2.57943 25.5443C2.68392 25.6488 2.80797 25.7317 2.9445 25.7882C3.08103 25.8447 3.22736 25.8737 3.37512 25.8736H7.87512C8.02288 25.8737 8.16921 25.8447 8.30574 25.7882C8.44227 25.7317 8.56632 25.6488 8.67081 25.5443C8.77529 25.4399 8.85815 25.3158 8.91466 25.1793C8.97117 25.0427 9.00021 24.8964 9.00012 24.7486V11.2487C9.0002 11.1009 8.97116 10.9546 8.91466 10.818C8.85815 10.6815 8.77529 10.5575 8.6708 10.453C8.56632 10.3485 8.44227 10.2656 8.30574 10.2091C8.16921 10.1526 8.02288 10.1236 7.87512 10.1237ZM6.75012 23.6236H4.50012V12.3737H6.75012V23.6236ZM5.6416 1.73453C5.14926 1.70505 4.65606 1.77604 4.19201 1.94315C3.72796 2.11027 3.30275 2.37003 2.94224 2.70663C2.58173 3.04323 2.29345 3.44965 2.09494 3.90116C1.89642 4.35268 1.79182 4.83985 1.78749 5.33305C1.78317 5.82626 1.8792 6.31519 2.06977 6.77012C2.26033 7.22504 2.54143 7.63646 2.89598 7.97933C3.25053 8.32221 3.67112 8.58939 4.13216 8.76462C4.59321 8.93986 5.08508 9.01948 5.57787 8.99865H5.60973C6.10338 9.02797 6.59782 8.95633 7.06284 8.78811C7.52787 8.61988 7.95371 8.35861 8.31434 8.02025C8.67498 7.68189 8.96284 7.27355 9.16033 6.82018C9.35782 6.36681 9.46079 5.87793 9.46296 5.38342C9.46513 4.88891 9.36645 4.39915 9.17294 3.94406C8.97944 3.48898 8.69517 3.07813 8.33752 2.73661C7.97986 2.3951 7.55633 2.1301 7.0928 1.95781C6.62927 1.78551 6.13547 1.70954 5.64159 1.73453H5.6416ZM5.60974 6.74865H5.57787C5.38332 6.77228 5.18597 6.75403 4.99905 6.69513C4.81213 6.63624 4.63996 6.53806 4.49409 6.40717C4.34823 6.27629 4.23203 6.11573 4.1533 5.93626C4.07457 5.75679 4.03512 5.56256 4.0376 5.3666C4.0376 4.52724 4.66711 3.98451 5.6416 3.98451C5.83814 3.95831 6.038 3.97454 6.22774 4.03208C6.41748 4.08963 6.59269 4.18717 6.74155 4.31814C6.89042 4.4491 7.0095 4.61044 7.09076 4.7913C7.17202 4.97216 7.21358 5.16833 7.21264 5.3666C7.21264 6.20595 6.58313 6.74865 5.60974 6.74865Z" fill="#6D39FF" stroke="#F5F5F5" stroke-width="0.4" mask="url(#path-1-inside-1)"/>
</svg>
