<svg width="80" height="80" viewBox="0 0 80 80" fill="none" xmlns="http://www.w3.org/2000/svg">
<rect width="80" height="80" rx="12" fill="#FF2633"/>
<path d="M47.1182 19.75C43.9171 19.75 41.2364 21.9783 40.5427 24.9684L21.5909 24.9684C20.5742 24.9684 19.75 25.7926 19.75 26.8093C19.75 27.8261 20.5742 28.6503 21.5909 28.6503L40.7179 28.6503C41.6158 31.3239 44.142 33.25 47.1182 33.25C50.0943 33.25 52.6206 31.3239 53.5185 28.6503H58.4091C59.4258 28.6503 60.25 27.8261 60.25 26.8093C60.25 25.7926 59.4258 24.9684 58.4091 24.9684H53.6937C53 21.9783 50.3193 19.75 47.1182 19.75Z" fill="white"/>
<path d="M29.9364 33.25C26.8317 33.25 24.2165 35.3461 23.4289 38.2004L21.5427 38.2498C20.5263 38.2764 19.724 39.122 19.7506 40.1383C19.7773 41.1547 20.6228 41.957 21.6392 41.9304L23.4525 41.8828C24.2675 44.6945 26.8619 46.75 29.9364 46.75C32.9932 46.75 35.5754 44.718 36.4061 41.9311H58.4091C59.4258 41.9311 60.25 41.1069 60.25 40.0902C60.25 39.0735 59.4258 38.2493 58.4091 38.2493H36.4571C35.6861 35.3701 33.0588 33.25 29.9364 33.25Z" fill="white"/>
<path d="M47.1182 46.75C44.0756 46.75 41.5032 48.763 40.6602 51.5299H21.5909C20.5742 51.5299 19.75 52.3541 19.75 53.3708C19.75 54.3875 20.5742 55.2117 21.5909 55.2117H40.5871C41.3448 58.1107 43.9817 60.25 47.1182 60.25C50.2547 60.25 52.8915 58.1107 53.6492 55.2117H58.4091C59.4258 55.2117 60.25 54.3875 60.25 53.3708C60.25 52.3541 59.4258 51.5299 58.4091 51.5299H53.5761C52.7331 48.763 50.1607 46.75 47.1182 46.75Z" fill="white"/>
</svg>
