<svg width="80" height="80" viewBox="0 0 80 80" fill="none" xmlns="http://www.w3.org/2000/svg">
<rect width="80" height="80" rx="12" fill="#FF2633"/>
<path fill-rule="evenodd" clip-rule="evenodd" d="M50.2719 22.1438C43.7923 18.9521 36.2077 18.9521 29.7281 22.1438C25.5702 24.1919 22.7524 28.2502 22.2782 32.8851L22.2041 33.6097C21.9546 36.0485 21.9338 38.5055 22.1421 40.9482L22.2117 41.7645C22.3257 43.1019 22.3914 43.8734 22.5194 44.6108C23.2144 48.6149 25.3021 52.2393 28.4084 54.8385C28.9804 55.3171 29.613 55.7588 30.7106 56.525L31.2751 56.9191C32.7363 57.9394 33.6198 58.5563 34.5229 58.9934C37.9841 60.6688 42.0159 60.6688 45.4771 58.9934C46.3802 58.5563 47.2637 57.9394 48.725 56.9191L49.2891 56.5252C50.3869 55.7588 51.0195 55.3172 51.5916 54.8385C54.6978 52.2393 56.7856 48.6149 57.4806 44.6108C57.6086 43.8734 57.6743 43.1019 57.7883 41.7645L57.8579 40.9482C58.0662 38.5055 58.0454 36.0485 57.7959 33.6097L57.7218 32.8851C57.2476 28.2502 54.4298 24.1919 50.2719 22.1438ZM46.6835 34.7359C47.2909 35.3082 47.3237 36.2693 46.7568 36.8825L39.5568 44.6709C39.2785 44.972 38.8909 45.1461 38.483 45.1532C38.0752 45.1603 37.6819 44.9998 37.3934 44.7086L33.2791 40.5547C32.6917 39.9616 32.6917 39 33.2791 38.4069C33.8666 37.8138 34.8191 37.8138 35.4065 38.4069L38.4198 41.4492L44.5574 34.8099C45.1243 34.1967 46.0762 34.1636 46.6835 34.7359Z" fill="white"/>
</svg>
