<svg width="32" height="32" viewBox="0 0 54 54" fill="none" xmlns="http://www.w3.org/2000/svg">
<path d="M20.4388 46.3984C15.1411 44.9996 11.088 40.7257 9.96966 35.3589L9.75596 34.3334C8.74801 29.4965 8.74801 24.5035 9.75596 19.6666L9.96966 18.6411C11.088 13.2743 15.1411 9.00044 20.4389 7.60162C24.7393 6.46613 29.2607 6.46613 33.5611 7.60162C38.8589 9.00044 42.912 13.2743 44.0303 18.6411L44.244 19.6666C45.252 24.5035 45.252 29.4965 44.244 34.3334L44.0303 35.3589C42.912 40.7257 38.8589 44.9996 33.5612 46.3984C29.2607 47.5339 24.7393 47.5339 20.4388 46.3984Z" stroke="black" stroke-width="3"/>
<path d="M27 15.75L27 20.25" stroke="black" stroke-width="3" stroke-linecap="round"/>
</svg>
